<svg xmlns="http://www.w3.org/2000/svg" fill="none" viewBox="0 0 84 84"><path fill="url(#a)" fill-rule="evenodd" d="M42 0a42 42 0 1 0 0 84 42 42 0 0 0 0-84Zm37.1 60.4-9.3-9.3v18.6H51l9.4 9.4H23.2l9.3-9.4H13.8V51.1l-9.3 9.3V41.8l9.3 9.3V13.8h18.7l-9.3-9.3h18.6l-9.3 9.3H51l-9.3-9.3h18.7L51 13.8h18.7v18.6l9.3-9.3v37.3Zm-65.3-28-9.3-9.3v18.7l9.3-9.4Zm9.4-9.3-9.4 9.3 9.4 9.4-9.4 9.3 9.4 9.3V41.8l9.3 9.3V32.4l-9.3 9.4V23Zm18.6 0-9.3-9.3-9.3 9.3h18.6Zm18.7 18.7 9.3-9.4L51 13.8l-9.3 9.3h18.7v18.7L51 32.4v18.7l9.4-9.3v18.6H23.2l9.3 9.3 9.3-9.3 9.3 9.3 18.7-18.6-9.3-9.3ZM41.8 23l9.3 9.3H32.5l9.3-9.3Zm-9.3 28 9.3 9.3 9.3-9.3H32.5ZM79 41.8 69.8 51V32.4l9.3 9.4ZM41.8 79l9.3-9.4H32.5l9.3 9.4Z" clip-rule="evenodd"/><defs><linearGradient id="a" x1="7.7" x2="81.5" y1="75.6" y2="18.1" gradientUnits="userSpaceOnUse"><stop stop-color="#D260CA" style="stop-color:#d260ca;stop-color:color(display-p3 .825 .3747 .7908);stop-opacity:1"/><stop offset=".5" stop-color="#7E4DFD" style="stop-color:#7e4dfd;stop-color:color(display-p3 .4935 .3016 .9917);stop-opacity:1"/><stop offset="1" stop-color="#0C8EB3" style="stop-color:#0c8eb3;stop-color:color(display-p3 .0467 .5566 .7);stop-opacity:1"/></linearGradient></defs></svg>