<?xml version="1.0" standalone="no"?>
<!DOCTYPE svg PUBLIC "-//W3C//DTD SVG 20010904//EN"
 "http://www.w3.org/TR/2001/REC-SVG-20010904/DTD/svg10.dtd">
<svg version="1.0" xmlns="http://www.w3.org/2000/svg"
 width="700.000000pt" height="700.000000pt" viewBox="0 0 700.000000 700.000000"
 preserveAspectRatio="xMidYMid meet">
<metadata>
Created by potrace 1.14, written by Peter Selinger 2001-2017
</metadata>
<g transform="translate(0.000000,700.000000) scale(0.100000,-0.100000)"
fill="#000000" stroke="none">
<path d="M3923 6395 c-238 -239 -433 -435 -433 -437 0 -2 545 -4 1210 -4 666
0 1210 1 1210 2 0 1 -33 34 -74 73 -91 89 -215 188 -354 286 -59 41 -112 79
-119 85 -7 5 -16 10 -21 10 -5 0 -21 9 -34 20 -66 51 -376 206 -549 274 -111
43 -373 127 -394 125 -5 0 -205 -195 -442 -434z"/>
<path d="M2434 6766 c-89 -30 -177 -61 -195 -69 -19 -9 -63 -28 -99 -43 -155
-63 -422 -210 -570 -313 -148 -102 -384 -294 -447 -363 l-23 -24 1183 1 c650
0 1185 -1 1189 -2 4 -2 -266 -276 -598 -608 l-606 -605 44 -1 c60 0 2360 0
2374 0 15 1 -2065 2081 -2080 2081 -6 -1 -84 -25 -172 -54z"/>
<path d="M5917 5942 c-2 -4 -3 -548 -3 -1209 1 -662 -1 -1203 -3 -1203 -2 0
-266 262 -587 583 -320 320 -591 591 -603 601 l-21 19 0 -1214 0 -1214 606
606 c333 333 606 603 608 600 1 -3 2 -547 2 -1208 -1 -662 1 -1203 4 -1203 15
0 413 414 447 465 196 295 362 650 451 963 l20 72 -461 460 -461 460 52 53
c28 28 232 232 452 452 220 220 400 406 400 414 0 8 -23 81 -50 163 -70 208
-175 441 -271 601 -16 26 -29 50 -29 52 0 5 -114 178 -163 248 -26 38 -166
215 -187 238 -98 105 -200 206 -203 201z"/>
<path d="M982 5835 c-328 -347 -602 -816 -758 -1299 l-45 -140 433 -433 c238
-238 434 -431 436 -429 4 5 4 2357 -1 2362 -2 2 -31 -25 -65 -61z"/>
<path d="M1658 4130 c-329 -329 -598 -602 -598 -607 0 -4 545 -553 1210 -1218
l1210 -1210 -1211 -5 -1211 -5 123 -122 c140 -138 232 -213 405 -329 267 -181
556 -323 851 -418 62 -20 118 -36 125 -36 7 0 218 205 468 455 l455 455 460
-460 c253 -253 466 -460 474 -460 27 0 218 63 356 117 228 90 515 243 690 368
33 24 148 132 255 239 l195 196 -1215 0 -1215 0 603 603 c331 331 602 605 602
608 0 3 -542 6 -1205 6 -663 0 -1207 2 -1210 5 -3 3 -6 548 -6 1212 0 663 -3
1206 -7 1205 -4 0 -276 -270 -604 -599z"/>
<path d="M607 3079 l-438 -439 25 -93 c133 -488 430 -1020 755 -1352 l101
-103 0 61 c2 424 0 2360 -2 2362 -2 1 -200 -195 -441 -436z"/>
</g>
</svg>
