<svg width="65" height="65" viewBox="0 0 65 65" fill="none" xmlns="http://www.w3.org/2000/svg">
<mask id="mask0_112_177" style="mask-type:alpha" maskUnits="userSpaceOnUse" x="0" y="0" width="65" height="65">
<circle cx="32.5781" cy="32.5767" r="32" fill="#D9D9D9" style="fill:#D9D9D9;fill:color(display-p3 0.8510 0.8510 0.8510);fill-opacity:1;"/>
</mask>
<g mask="url(#mask0_112_177)">
<path fill-rule="evenodd" clip-rule="evenodd" d="M32.5783 -18.288C4.48651 -18.288 -18.2881 4.48321 -18.2881 32.5784C-18.2881 60.6714 4.48537 83.4415 32.5783 83.4415C60.6702 83.4415 83.4448 60.6702 83.4448 32.5784C83.4448 4.48321 60.6702 -18.288 32.5783 -18.288ZM77.5103 54.8737L66.2225 43.5837V66.165H43.6412L54.929 77.4528H32.3511H9.7687L21.0588 66.165H-1.52025V43.5825L-12.8115 54.8726V32.2913L-1.5203 43.5825V21.0012L-1.52025 21.0012V-1.57894H21.0588L9.7687 -12.8702H32.3511L32.3513 -12.8702L21.0589 -1.57895H43.6414L32.3513 -12.8702L54.9302 -12.8702L43.6423 -1.57894H66.2236V21.0012L77.5115 9.71115V32.2913L77.5103 54.8737ZM-12.8115 32.2912V9.71115L-1.5203 21.0012L-12.8115 32.2912ZM9.76875 9.71119L-1.5202 21.0013L9.76875 32.2914L-1.5202 43.5825L9.76875 54.8715V32.2914L21.0588 43.5802V21.0012L9.76875 32.2914V9.71119ZM32.3511 9.71119L21.0588 -1.5789L9.76875 9.71119L32.3511 9.71119ZM54.929 32.2914L66.2225 21.0013L43.6412 -1.5789L32.3511 9.71119L21.06 21.0013H43.6413L32.3511 9.71119H54.929V32.2914ZM54.929 32.2914L66.2225 43.5825L43.6412 66.1638L32.3511 54.8737H54.929V32.2914ZM21.0589 66.1639H21.0588L9.76873 54.8738L32.3511 54.8737L21.0589 66.1639ZM21.0589 66.1639H43.6414L32.3513 77.4517L21.0589 66.1639ZM54.929 32.2914L43.6412 43.578V21.0024L54.929 32.2914ZM21.06 43.5825L32.3512 54.8737L43.6413 43.5825H21.06ZM77.5103 32.2913L66.2225 43.5825V21.0012L77.5103 32.2913Z" fill="url(#paint0_linear_112_177)" style=""/>
</g>
<defs>
<linearGradient id="paint0_linear_112_177" x1="-8.99518" y1="73.2685" x2="80.3825" y2="3.62949" gradientUnits="userSpaceOnUse">
<stop stop-color="#D260CA" style="stop-color:#D260CA;stop-color:color(display-p3 0.8250 0.3747 0.7908);stop-opacity:1;"/>
<stop offset="0.484375" stop-color="#7E4DFD" style="stop-color:#7E4DFD;stop-color:color(display-p3 0.4935 0.3016 0.9917);stop-opacity:1;"/>
<stop offset="1" stop-color="#0C8EB3" style="stop-color:#0C8EB3;stop-color:color(display-p3 0.0467 0.5566 0.7000);stop-opacity:1;"/>
</linearGradient>
</defs>
</svg>
