<svg width="256" height="43" viewBox="0 0 256 43" fill="none" xmlns="http://www.w3.org/2000/svg">
<path fill-rule="evenodd" clip-rule="evenodd" d="M21.4226 0C9.59161 0 0 9.59018 0 21.4226C0 33.2541 9.59113 42.8438 21.4226 42.8438C33.2536 42.8438 42.8452 33.2536 42.8452 21.4226C42.8452 9.59018 33.2536 0 21.4226 0ZM40.3459 30.8124L35.592 26.0575V35.5677H26.0818L30.8357 40.3216H21.3269H11.8162L16.5711 35.5677H7.06184V26.057L11.8162 30.8114V21.3017V11.792L7.06183 16.5469L11.8162 21.3017L7.06184 26.057L2.3065 30.8119V21.3017L7.06182 26.057V16.5468L7.06184 16.5468V7.03709H16.5711L11.8162 11.7919H21.3269L16.5711 7.03711H26.0818L21.3269 11.7919H30.8357V21.3017L35.592 16.5468L35.592 26.057L30.8357 21.3017V30.8124H21.3269L26.0818 35.5673L35.592 26.0571L35.592 26.057L40.3459 21.3017L35.592 16.5468L26.0818 7.03708L26.0818 7.03711L21.3269 2.28177L16.5711 7.03711L16.5711 7.03709L11.8162 2.28174H21.3269H30.8362L26.0822 7.03709H35.5925V16.5468L40.3464 11.7919V21.3017L40.3459 30.8124ZM2.3065 21.3016V11.7919L7.06182 16.5468L2.3065 21.3016ZM11.8162 21.3017L16.5711 16.5468V26.0561L11.8162 21.3017ZM21.3269 11.792L26.0818 16.5469H16.5716L21.3269 11.792ZM16.5716 26.057L21.3269 30.8123H11.8162L16.5711 35.5672L21.3269 30.8123L21.3269 30.8124L26.0818 26.057H16.5716ZM26.0818 26.0551L30.8357 21.3017L26.0818 16.5473V26.0551ZM21.3269 40.3212L26.0818 35.5673H16.5711L21.3269 40.3212Z" fill="white" style="fill:white;fill:white;fill-opacity:1;"/>
<path d="M49.4428 21.8963C49.4428 20.3507 49.6866 18.9248 50.1742 17.6184C50.6618 16.312 51.3702 15.1759 52.2994 14.2099C53.2377 13.2347 54.3693 12.4803 55.6941 11.9467C57.0281 11.4039 58.5322 11.1325 60.2066 11.1325C61.8809 11.1325 63.3851 11.4039 64.7191 11.9467C66.0531 12.4803 67.1846 13.2347 68.1138 14.2099C69.043 15.1759 69.7514 16.312 70.239 17.6184C70.7266 18.9248 70.9704 20.3507 70.9704 21.8963C70.9704 23.4419 70.7128 24.8678 70.1976 26.1742C69.6916 27.4806 68.9602 28.6214 68.0034 29.5965C67.0558 30.5625 65.9197 31.3169 64.5949 31.8597C63.2793 32.3933 61.8166 32.6601 60.2066 32.6601C58.5322 32.6601 57.0281 32.3933 55.6941 31.8597C54.3693 31.3169 53.2377 30.5625 52.2994 29.5965C51.3702 28.6214 50.6618 27.4806 50.1742 26.1742C49.6866 24.8678 49.4428 23.4419 49.4428 21.8963ZM54.6177 21.8963C54.6177 23.0739 54.7235 24.1687 54.9351 25.1806C55.1467 26.1926 55.4733 27.0712 55.9149 27.8164C56.3657 28.5616 56.9453 29.1412 57.6536 29.5552C58.3712 29.9691 59.2222 30.1761 60.2066 30.1761C61.2738 30.1761 62.1615 29.9691 62.8699 29.5552C63.5875 29.1412 64.1579 28.5616 64.5811 27.8164C65.0135 27.0712 65.3217 26.1926 65.5057 25.1806C65.6989 24.1687 65.7955 23.0739 65.7955 21.8963C65.7955 20.7095 65.6897 19.6148 65.4781 18.612C65.2665 17.6 64.9353 16.7214 64.4845 15.9762C64.0429 15.231 63.4679 14.6515 62.7595 14.2375C62.0603 13.8235 61.2094 13.6165 60.2066 13.6165C59.2222 13.6165 58.3712 13.8235 57.6536 14.2375C56.9453 14.6515 56.3657 15.231 55.9149 15.9762C55.4733 16.7214 55.1467 17.6 54.9351 18.612C54.7235 19.6148 54.6177 20.7095 54.6177 21.8963ZM78.2598 25.0564C78.2598 26.0132 78.3932 26.8826 78.66 27.6646C78.936 28.4466 79.3178 29.0722 79.8054 29.5414C80.293 30.0105 80.8634 30.2451 81.5166 30.2451C82.1054 30.2451 82.6251 30.0105 83.0759 29.5414C83.5359 29.0722 83.8947 28.4466 84.1523 27.6646C84.4099 26.8826 84.5387 26.0132 84.5387 25.0564C84.5387 24.0997 84.4099 23.2303 84.1523 22.4483C83.8947 21.6663 83.5359 21.0407 83.0759 20.5715C82.6251 20.1023 82.1054 19.8678 81.5166 19.8678C80.8634 19.8678 80.293 20.1023 79.8054 20.5715C79.3178 21.0407 78.936 21.6663 78.66 22.4483C78.3932 23.2303 78.2598 24.0997 78.2598 25.0564ZM71.6222 19.4676V18.4326C71.6222 18.1842 71.6636 18.0324 71.7464 17.9772C71.8384 17.922 71.9994 17.8944 72.2294 17.8944H77.6941C77.8964 17.8944 78.039 17.922 78.1218 17.9772C78.2138 18.0324 78.2598 18.1658 78.2598 18.3774V19.5366C78.2598 19.8034 78.2874 19.9414 78.3426 19.9506C78.407 19.9506 78.4944 19.8632 78.6048 19.6884C79.0372 19.0076 79.6076 18.4694 80.316 18.0738C81.0244 17.6782 81.8662 17.4804 82.8413 17.4804C83.9821 17.4804 85.0125 17.7748 85.9325 18.3636C86.8617 18.9524 87.5976 19.8126 88.1404 20.9441C88.6924 22.0757 88.9684 23.4465 88.9684 25.0564C88.9684 26.6664 88.6832 28.0372 88.1128 29.1688C87.5424 30.3003 86.7835 31.1605 85.8359 31.7493C84.8883 32.3381 83.8441 32.6325 82.7033 32.6325C81.8294 32.6325 81.0658 32.4715 80.4126 32.1495C79.7686 31.8183 79.235 31.3629 78.8118 30.7833C78.6094 30.5073 78.4668 30.3877 78.384 30.4245C78.3012 30.4521 78.2598 30.8201 78.2598 31.5285V36.3998C78.2598 36.685 78.2966 36.869 78.3702 36.9518C78.4438 37.0346 78.6278 37.076 78.9222 37.076H80.2608C80.454 37.076 80.5828 37.1036 80.6472 37.1588C80.7116 37.214 80.7438 37.3474 80.7438 37.559V38.7872C80.7438 39.0264 80.7116 39.1689 80.6472 39.2149C80.5828 39.2609 80.431 39.2839 80.1918 39.2839H72.1604C71.9212 39.2839 71.7694 39.2471 71.705 39.1735C71.6498 39.1 71.6222 38.9528 71.6222 38.732V37.5728C71.6222 37.3704 71.6452 37.237 71.6912 37.1726C71.7464 37.1082 71.8752 37.076 72.0776 37.076H73.4989C73.7841 37.076 73.9543 37.03 74.0095 36.938C74.0739 36.8552 74.1061 36.6712 74.1061 36.386V20.7233C74.1061 20.4473 74.0601 20.2771 73.9681 20.2127C73.8761 20.1391 73.6921 20.1023 73.4161 20.1023H72.257C71.9718 20.1023 71.7924 20.0655 71.7188 19.992C71.6544 19.9092 71.6222 19.7344 71.6222 19.4676ZM89.6452 25.3462C89.6452 23.8743 89.9212 22.5449 90.4732 21.3581C91.0344 20.1713 91.8716 19.2284 92.9848 18.5292C94.1072 17.83 95.5009 17.4804 97.1661 17.4804C98.2793 17.4804 99.2268 17.6414 100.009 17.9634C100.791 18.2854 101.43 18.7178 101.927 19.2606C102.433 19.7942 102.829 20.3921 103.114 21.0545C103.399 21.7169 103.597 22.3977 103.707 23.0969C103.818 23.7869 103.873 24.4447 103.873 25.0702C103.873 25.2634 103.841 25.3876 103.776 25.4428C103.721 25.498 103.592 25.5256 103.39 25.5256H94.5027C94.3279 25.5256 94.2176 25.5532 94.1716 25.6084C94.1256 25.6636 94.1072 25.774 94.1164 25.9396C94.144 26.7676 94.2636 27.5358 94.4751 28.2442C94.6959 28.9434 95.0455 29.5046 95.5239 29.9277C96.0023 30.3509 96.6417 30.5625 97.4421 30.5625C98.3345 30.5625 99.0659 30.3187 99.6362 29.8311C100.216 29.3436 100.68 28.6674 101.03 27.8026C101.067 27.7014 101.108 27.6232 101.154 27.568C101.209 27.5036 101.315 27.4714 101.472 27.4714H103.335C103.5 27.4714 103.601 27.4944 103.638 27.5404C103.684 27.5772 103.693 27.6646 103.666 27.8026C103.399 28.8514 102.962 29.7391 102.355 30.4659C101.748 31.1835 100.989 31.7309 100.078 32.1081C99.1762 32.4761 98.1413 32.6601 96.9729 32.6601C95.3537 32.6601 93.9968 32.3197 92.902 31.6389C91.8164 30.9581 91.0022 30.0611 90.4594 28.948C89.9166 27.8348 89.6452 26.6342 89.6452 25.3462ZM94.5441 23.5109H99.2222C99.4062 23.5109 99.5166 23.4971 99.5534 23.4695C99.5902 23.4327 99.604 23.3453 99.5948 23.2073C99.5856 22.7933 99.5304 22.3655 99.4292 21.9239C99.328 21.4823 99.1762 21.0775 98.9739 20.7095C98.7715 20.3323 98.5139 20.0287 98.2011 19.7988C97.8883 19.5688 97.5157 19.4538 97.0833 19.4538C96.4393 19.4538 95.9057 19.6286 95.4825 19.9782C95.0685 20.3277 94.7557 20.7785 94.5441 21.3305C94.3325 21.8733 94.2084 22.4575 94.1716 23.0831C94.1624 23.2487 94.1716 23.3637 94.1992 23.4281C94.2268 23.4833 94.3417 23.5109 94.5441 23.5109ZM106.184 20.1023H104.68C104.459 20.1023 104.321 20.0701 104.266 20.0058C104.211 19.9322 104.183 19.7896 104.183 19.578V18.4188C104.183 18.2072 104.234 18.0692 104.335 18.0048C104.436 17.9312 104.583 17.8944 104.776 17.8944H109.938C110.122 17.8944 110.269 17.9404 110.379 18.0324C110.489 18.1152 110.545 18.267 110.545 18.4878V19.5366C110.545 19.8862 110.577 20.0747 110.641 20.1023C110.715 20.1299 110.821 20.0517 110.959 19.8678C111.428 19.2146 112.021 18.6534 112.739 18.1842C113.456 17.715 114.409 17.4804 115.595 17.4804C116.718 17.4804 117.629 17.6598 118.328 18.0186C119.027 18.3682 119.538 18.8834 119.859 19.5642C120.181 20.2449 120.342 21.0775 120.342 22.0619V29.431C120.342 29.6885 120.37 29.8541 120.425 29.9277C120.49 30.0013 120.655 30.0381 120.922 30.0381H122.399C122.564 30.0381 122.675 30.0703 122.73 30.1347C122.794 30.1991 122.826 30.3187 122.826 30.4935V31.7355C122.826 31.9747 122.78 32.1219 122.688 32.1771C122.606 32.2231 122.445 32.2461 122.205 32.2461H114.698C114.496 32.2461 114.372 32.2093 114.326 32.1357C114.289 32.0529 114.271 31.9103 114.271 31.7079V30.5487C114.271 30.3739 114.289 30.2451 114.326 30.1623C114.372 30.0795 114.482 30.0381 114.657 30.0381H115.623C115.862 30.0381 116.014 30.0105 116.078 29.9553C116.152 29.8909 116.189 29.7391 116.189 29.5V22.4345C116.189 21.5513 116.037 20.9073 115.733 20.5025C115.43 20.0885 114.942 19.8816 114.271 19.8816C113.645 19.8816 113.07 20.0655 112.546 20.4335C112.021 20.7923 111.603 21.3121 111.29 21.9929C110.977 22.6737 110.821 23.4879 110.821 24.4355V29.4862C110.821 29.6885 110.853 29.8311 110.917 29.9139C110.991 29.9967 111.138 30.0381 111.359 30.0381H112.228C112.431 30.0381 112.569 30.0657 112.642 30.1209C112.716 30.1761 112.753 30.3095 112.753 30.5211V31.7769C112.753 31.9885 112.707 32.1219 112.615 32.1771C112.532 32.2231 112.398 32.2461 112.214 32.2461H104.597C104.413 32.2461 104.298 32.2139 104.252 32.1495C104.206 32.0759 104.183 31.9379 104.183 31.7355V30.5487C104.183 30.3279 104.22 30.1899 104.293 30.1347C104.367 30.0703 104.505 30.0381 104.707 30.0381H106.087C106.327 30.0381 106.483 30.0151 106.557 29.9691C106.63 29.9231 106.667 29.7851 106.667 29.5552V20.5439C106.667 20.3507 106.635 20.2311 106.57 20.1851C106.506 20.1299 106.377 20.1023 106.184 20.1023ZM135.083 21.2063H144.922C145.216 21.2063 145.405 21.2431 145.488 21.3167C145.57 21.3811 145.612 21.5697 145.612 21.8825V23.4833C145.612 23.7041 145.575 23.8421 145.501 23.8973C145.437 23.9433 145.29 23.9663 145.06 23.9663H143.335C143.132 23.9663 142.999 23.9985 142.935 24.0629C142.879 24.1181 142.852 24.2515 142.852 24.4631V26.6158C142.852 26.8918 142.838 27.108 142.81 27.2644C142.783 27.4116 142.718 27.5726 142.617 27.7474C142.323 28.2626 141.904 28.81 141.361 29.3896C140.819 29.9599 140.147 30.4935 139.347 30.9903C138.555 31.4871 137.631 31.8919 136.573 32.2047C135.524 32.5083 134.351 32.6601 133.054 32.6601C131.481 32.6601 130.032 32.4025 128.707 31.8873C127.382 31.3721 126.228 30.6407 125.243 29.6931C124.259 28.7456 123.495 27.614 122.953 26.2984C122.419 24.9736 122.152 23.5063 122.152 21.8963C122.152 20.3599 122.428 18.9386 122.98 17.6322C123.532 16.3166 124.3 15.1759 125.285 14.2099C126.278 13.2347 127.437 12.4803 128.762 11.9467C130.087 11.4039 131.518 11.1325 133.054 11.1325C134.324 11.1325 135.432 11.3119 136.38 11.6707C137.327 12.0203 138.137 12.4987 138.808 13.1059C138.992 13.2531 139.13 13.3175 139.222 13.2991C139.314 13.2807 139.42 13.1611 139.54 12.9403L140.05 11.8501C140.115 11.7397 140.184 11.6523 140.257 11.5879C140.331 11.5143 140.441 11.4775 140.589 11.4775H141.927C142.102 11.4775 142.231 11.5051 142.314 11.5603C142.396 11.6155 142.438 11.7305 142.438 11.9053V18.0186C142.438 18.2394 142.415 18.4142 142.369 18.543C142.323 18.6626 142.185 18.7224 141.955 18.7224H140.271C139.949 18.7224 139.756 18.681 139.692 18.5982C139.636 18.5154 139.572 18.359 139.498 18.129C139.259 17.2918 138.905 16.5374 138.436 15.8658C137.967 15.1943 137.332 14.6607 136.531 14.2651C135.74 13.8695 134.728 13.6717 133.496 13.6717C132.263 13.6717 131.182 14.0213 130.253 14.7205C129.333 15.4104 128.615 16.3718 128.1 17.6046C127.585 18.8374 127.327 20.2679 127.327 21.8963C127.327 23.5247 127.548 24.9598 127.989 26.2018C128.431 27.4438 129.075 28.419 129.921 29.1274C130.777 29.8265 131.821 30.1761 133.054 30.1761C134.038 30.1761 134.853 30.0289 135.497 29.7345C136.15 29.4402 136.674 29.0676 137.07 28.6168C137.465 28.1568 137.764 27.6922 137.967 27.223C138.031 27.0666 138.077 26.9194 138.105 26.7814C138.141 26.6342 138.16 26.4456 138.16 26.2156V24.5045C138.16 24.2653 138.118 24.1181 138.036 24.0629C137.962 23.9985 137.815 23.9663 137.594 23.9663H135.027C134.751 23.9663 134.581 23.9203 134.517 23.8283C134.462 23.7271 134.434 23.5477 134.434 23.2901V21.8135C134.434 21.5375 134.475 21.3673 134.558 21.3029C134.641 21.2385 134.816 21.2063 135.083 21.2063ZM148.116 20.6681C148.116 20.4381 148.088 20.2863 148.033 20.2127C147.987 20.1391 147.854 20.1023 147.633 20.1023H146.087C145.885 20.1023 145.756 20.0747 145.701 20.0195C145.655 19.9552 145.632 19.8264 145.632 19.6332V18.4188C145.632 18.2072 145.664 18.0692 145.728 18.0048C145.793 17.9312 145.922 17.8944 146.115 17.8944H151.524C151.69 17.8944 151.809 17.922 151.883 17.9772C151.957 18.0232 151.993 18.1382 151.993 18.3222V19.5918C151.993 19.8586 152.012 20.0195 152.049 20.0747C152.085 20.1299 152.159 20.0563 152.269 19.854C152.656 19.1732 153.185 18.6074 153.856 18.1566C154.537 17.7058 155.411 17.4804 156.478 17.4804C157.509 17.4804 158.387 17.7564 159.114 18.3084C159.85 18.8512 160.218 19.624 160.218 20.6267C160.218 21.0591 160.121 21.4915 159.928 21.9239C159.735 22.3471 159.45 22.7013 159.073 22.9865C158.695 23.2717 158.231 23.4143 157.679 23.4143C156.998 23.4143 156.432 23.2395 155.982 22.8899C155.531 22.5403 155.305 22.0849 155.305 21.5237C155.305 21.1465 155.365 20.8521 155.485 20.6405C155.604 20.4289 155.724 20.2633 155.844 20.1437C155.972 20.0241 156.037 19.9092 156.037 19.7988C156.037 19.6976 155.991 19.6148 155.899 19.5504C155.816 19.486 155.655 19.4538 155.416 19.4538C154.882 19.4538 154.372 19.6976 153.884 20.1851C153.406 20.6635 153.015 21.3029 152.711 22.1033C152.417 22.8945 152.269 23.7639 152.269 24.7115V29.5138C152.269 29.7253 152.297 29.8679 152.352 29.9415C152.407 30.0059 152.545 30.0381 152.766 30.0381H154.381C154.556 30.0381 154.661 30.0703 154.698 30.1347C154.735 30.1991 154.753 30.3187 154.753 30.4935V31.7493C154.753 31.9425 154.73 32.0759 154.684 32.1495C154.648 32.2139 154.537 32.2461 154.353 32.2461H146.129C145.954 32.2461 145.825 32.2185 145.742 32.1633C145.669 32.1081 145.632 31.9931 145.632 31.8183V30.4383C145.632 30.2543 145.664 30.1439 145.728 30.1071C145.802 30.0611 145.922 30.0381 146.087 30.0381H147.509C147.739 30.0381 147.895 30.0105 147.978 29.9553C148.07 29.9001 148.116 29.7621 148.116 29.5414V20.6681ZM159.768 28.8514C159.768 27.8946 160.076 27.0574 160.692 26.3398C161.309 25.6222 162.187 25.0656 163.328 24.6701C164.469 24.2653 165.83 24.0629 167.413 24.0629H168.544C168.701 24.0629 168.797 24.0445 168.834 24.0077C168.88 23.9709 168.903 23.8697 168.903 23.7041V22.1171C168.903 21.5743 168.82 21.1051 168.655 20.7095C168.498 20.3047 168.241 19.992 167.882 19.7712C167.523 19.5504 167.059 19.44 166.488 19.44C166.166 19.44 165.863 19.4722 165.578 19.5366C165.302 19.601 165.076 19.6838 164.901 19.785C164.736 19.8862 164.653 19.9966 164.653 20.1161C164.653 20.2541 164.704 20.3645 164.805 20.4473C164.906 20.5209 165.007 20.6405 165.108 20.8061C165.219 20.9625 165.274 21.2293 165.274 21.6065C165.274 22.1769 165.058 22.6323 164.625 22.9727C164.193 23.3131 163.673 23.4833 163.066 23.4833C162.431 23.4833 161.884 23.3407 161.424 23.0555C160.964 22.7703 160.734 22.2873 160.734 21.6065C160.734 20.9257 160.932 20.3323 161.327 19.8264C161.732 19.3204 162.27 18.9064 162.942 18.5844C163.613 18.2532 164.359 18.0094 165.177 17.853C165.996 17.6966 166.824 17.6184 167.661 17.6184C168.949 17.6184 169.989 17.8116 170.78 18.198C171.571 18.5844 172.146 19.1318 172.505 19.8402C172.873 20.5485 173.057 21.3765 173.057 22.3241V29.3896C173.057 29.6655 173.126 29.8679 173.264 29.9967C173.411 30.1255 173.581 30.1899 173.775 30.1899C173.968 30.1899 174.166 30.1393 174.368 30.0381C174.57 29.9277 174.768 29.7069 174.961 29.3758C175.053 29.2194 175.159 29.1872 175.279 29.2792L176.314 29.9139C176.433 29.9875 176.461 30.0979 176.396 30.2451C176.185 30.6499 175.904 31.0271 175.555 31.3767C175.205 31.7171 174.791 31.9931 174.313 32.2047C173.844 32.4163 173.305 32.5221 172.698 32.5221H172.684C172.013 32.5221 171.475 32.4393 171.07 32.2737C170.665 32.1081 170.343 31.8965 170.104 31.6389C169.874 31.3813 169.681 31.1237 169.524 30.8661C169.395 30.6545 169.29 30.5441 169.207 30.5349C169.124 30.5257 169.009 30.6039 168.862 30.7695C168.641 31.0271 168.342 31.2939 167.965 31.5699C167.597 31.8367 167.118 32.0621 166.53 32.2461C165.941 32.4301 165.205 32.5221 164.322 32.5221C162.923 32.5221 161.815 32.2093 160.996 31.5837C160.177 30.9581 159.768 30.0473 159.768 28.8514ZM164.46 28.3684C164.46 29.0124 164.644 29.4862 165.012 29.7897C165.389 30.0841 165.853 30.2313 166.405 30.2313C167.169 30.2313 167.776 29.9599 168.227 29.4172C168.678 28.8652 168.903 28.051 168.903 26.9746V25.912C168.903 25.728 168.811 25.636 168.627 25.636H167.868C167.123 25.636 166.497 25.7556 165.991 25.9948C165.486 26.234 165.104 26.5606 164.846 26.9746C164.589 27.3794 164.46 27.844 164.46 28.3684ZM181.448 25.0564C181.448 26.0132 181.582 26.8826 181.848 27.6646C182.124 28.4466 182.506 29.0722 182.994 29.5414C183.481 30.0105 184.052 30.2451 184.705 30.2451C185.294 30.2451 185.814 30.0105 186.264 29.5414C186.724 29.0722 187.083 28.4466 187.341 27.6646C187.598 26.8826 187.727 26.0132 187.727 25.0564C187.727 24.0997 187.598 23.2303 187.341 22.4483C187.083 21.6663 186.724 21.0407 186.264 20.5715C185.814 20.1023 185.294 19.8678 184.705 19.8678C184.052 19.8678 183.481 20.1023 182.994 20.5715C182.506 21.0407 182.124 21.6663 181.848 22.4483C181.582 23.2303 181.448 24.0997 181.448 25.0564ZM174.811 19.4676V18.4326C174.811 18.1842 174.852 18.0324 174.935 17.9772C175.027 17.922 175.188 17.8944 175.418 17.8944H180.882C181.085 17.8944 181.227 17.922 181.31 17.9772C181.402 18.0324 181.448 18.1658 181.448 18.3774V19.5366C181.448 19.8034 181.476 19.9414 181.531 19.9506C181.595 19.9506 181.683 19.8632 181.793 19.6884C182.226 19.0076 182.796 18.4694 183.504 18.0738C184.213 17.6782 185.055 17.4804 186.03 17.4804C187.171 17.4804 188.201 17.7748 189.121 18.3636C190.05 18.9524 190.786 19.8126 191.329 20.9441C191.881 22.0757 192.157 23.4465 192.157 25.0564C192.157 26.6664 191.872 28.0372 191.301 29.1688C190.731 30.3003 189.972 31.1605 189.024 31.7493C188.077 32.3381 187.033 32.6325 185.892 32.6325C185.018 32.6325 184.254 32.4715 183.601 32.1495C182.957 31.8183 182.423 31.3629 182 30.7833C181.798 30.5073 181.655 30.3877 181.572 30.4245C181.49 30.4521 181.448 30.8201 181.448 31.5285V36.3998C181.448 36.685 181.485 36.869 181.559 36.9518C181.632 37.0346 181.816 37.076 182.111 37.076H183.449C183.642 37.076 183.771 37.1036 183.836 37.1588C183.9 37.214 183.932 37.3474 183.932 37.559V38.7872C183.932 39.0264 183.9 39.1689 183.836 39.2149C183.771 39.2609 183.619 39.2839 183.38 39.2839H175.349C175.11 39.2839 174.958 39.2471 174.893 39.1735C174.838 39.1 174.811 38.9528 174.811 38.732V37.5728C174.811 37.3704 174.834 37.237 174.88 37.1726C174.935 37.1082 175.064 37.076 175.266 37.076H176.687C176.973 37.076 177.143 37.03 177.198 36.938C177.262 36.8552 177.295 36.6712 177.295 36.386V20.7233C177.295 20.4473 177.249 20.2771 177.157 20.2127C177.065 20.1391 176.881 20.1023 176.605 20.1023H175.445C175.16 20.1023 174.981 20.0655 174.907 19.992C174.843 19.9092 174.811 19.7344 174.811 19.4676ZM194.251 12.9265H192.512C192.337 12.9265 192.227 12.9035 192.181 12.8575C192.135 12.8115 192.112 12.7057 192.112 12.5401V11.1187C192.112 10.9623 192.13 10.8565 192.167 10.8013C192.213 10.7461 192.319 10.7185 192.485 10.7185H198.142C198.28 10.7185 198.368 10.7461 198.405 10.8013C198.451 10.8565 198.474 10.9531 198.474 11.0911V19.5504C198.474 19.8172 198.483 19.969 198.501 20.0058C198.52 20.0425 198.552 20.0104 198.598 19.9092C198.653 19.808 198.722 19.7022 198.805 19.5918C199.237 18.9754 199.826 18.4694 200.571 18.0738C201.326 17.6782 202.218 17.4804 203.248 17.4804C204.794 17.4804 205.971 17.876 206.781 18.6672C207.591 19.4492 207.995 20.5807 207.995 22.0619V29.6517C207.995 29.8265 208.014 29.9369 208.051 29.9829C208.097 30.0197 208.207 30.0381 208.382 30.0381H210.134C210.263 30.0381 210.351 30.0611 210.397 30.1071C210.452 30.1439 210.479 30.2267 210.479 30.3555V31.9011C210.479 32.0483 210.452 32.1449 210.397 32.1909C210.351 32.2277 210.254 32.2461 210.107 32.2461H202.269C202.121 32.2461 202.029 32.2185 201.993 32.1633C201.956 32.0989 201.937 31.9885 201.937 31.8321V30.3969C201.937 30.2773 201.951 30.1899 201.979 30.1347C202.006 30.0703 202.08 30.0381 202.2 30.0381H203.469C203.626 30.0381 203.727 30.0151 203.773 29.9691C203.819 29.9231 203.842 29.8219 203.842 29.6655V22.4345C203.842 21.5513 203.69 20.9073 203.386 20.5025C203.083 20.0885 202.595 19.8816 201.924 19.8816C201.298 19.8816 200.723 20.0655 200.199 20.4335C199.674 20.7923 199.256 21.3121 198.943 21.9929C198.63 22.6737 198.474 23.4879 198.474 24.4355V29.6517C198.474 29.8173 198.501 29.9231 198.556 29.9691C198.621 30.0151 198.74 30.0381 198.915 30.0381H199.992C200.148 30.0381 200.254 30.0657 200.309 30.1209C200.373 30.1669 200.406 30.2727 200.406 30.4383V31.8183C200.406 31.9839 200.378 32.0989 200.323 32.1633C200.268 32.2185 200.162 32.2461 200.005 32.2461H192.388C192.268 32.2461 192.19 32.2277 192.153 32.1909C192.126 32.1449 192.112 32.0575 192.112 31.9287V30.4245C192.112 30.2681 192.126 30.1669 192.153 30.1209C192.19 30.0657 192.287 30.0381 192.443 30.0381H194.196C194.371 30.0381 194.481 30.0105 194.527 29.9553C194.573 29.9001 194.596 29.7897 194.596 29.6241V13.3543C194.596 13.1979 194.578 13.0875 194.541 13.0231C194.504 12.9587 194.407 12.9265 194.251 12.9265ZM212.579 13.0645C212.579 12.3653 212.823 11.8133 213.31 11.4085C213.798 10.9945 214.382 10.7875 215.063 10.7875C215.753 10.7875 216.337 10.9945 216.816 11.4085C217.303 11.8133 217.547 12.3653 217.547 13.0645C217.547 13.7637 217.303 14.3203 216.816 14.7343C216.337 15.1391 215.753 15.3414 215.063 15.3414C214.382 15.3414 213.798 15.1391 213.31 14.7343C212.823 14.3203 212.579 13.7637 212.579 13.0645ZM212.828 20.1023H210.965C210.836 20.1023 210.748 20.0839 210.702 20.0471C210.666 20.0103 210.647 19.9276 210.647 19.7988V18.267C210.647 18.0186 210.771 17.8944 211.02 17.8944H216.967C217.087 17.8944 217.165 17.9128 217.202 17.9496C217.248 17.9772 217.271 18.0508 217.271 18.1704V29.6931C217.271 29.8219 217.289 29.9139 217.326 29.9691C217.363 30.0151 217.441 30.0381 217.561 30.0381H219.396C219.543 30.0381 219.64 30.0519 219.686 30.0795C219.732 30.1071 219.755 30.1945 219.755 30.3417V31.8597C219.755 32.0345 219.732 32.1449 219.686 32.1909C219.64 32.2277 219.534 32.2461 219.369 32.2461H211.02C210.873 32.2461 210.771 32.2277 210.716 32.1909C210.67 32.1449 210.647 32.0483 210.647 31.9011V30.4383C210.647 30.2635 210.675 30.1531 210.73 30.1071C210.785 30.0611 210.896 30.0381 211.061 30.0381H212.786C212.942 30.0381 213.039 30.0197 213.076 29.9829C213.113 29.9369 213.131 29.8403 213.131 29.6931V20.4473C213.131 20.2173 213.03 20.1023 212.828 20.1023ZM221.544 12.9265H220.122C219.911 12.9265 219.777 12.8989 219.722 12.8437C219.676 12.7793 219.653 12.6505 219.653 12.4573V11.2705C219.653 11.0497 219.69 10.9025 219.764 10.8289C219.837 10.7553 219.984 10.7185 220.205 10.7185H225.587C225.845 10.7185 226.024 10.7507 226.125 10.8151C226.236 10.8703 226.291 11.0359 226.291 11.3119V23.1383C226.291 23.4695 226.337 23.6535 226.429 23.6903C226.521 23.7179 226.659 23.6673 226.843 23.5385L230.914 20.6267C231.171 20.4519 231.305 20.3461 231.314 20.3093C231.332 20.2633 231.112 20.2403 230.652 20.2403H229.423C229.184 20.2403 229.032 20.2081 228.968 20.1437C228.913 20.0793 228.885 19.923 228.885 19.6746V18.3774C228.885 18.1658 228.917 18.0324 228.982 17.9772C229.055 17.922 229.189 17.8944 229.382 17.8944H237.068C237.262 17.8944 237.386 17.9266 237.441 17.991C237.496 18.0554 237.524 18.1888 237.524 18.3912V19.7436C237.524 19.9368 237.496 20.0701 237.441 20.1437C237.386 20.2081 237.257 20.2403 237.055 20.2403H235.633C235.376 20.2403 235.178 20.2633 235.04 20.3093C234.902 20.3553 234.764 20.4335 234.626 20.5439L230.734 23.4833C230.504 23.6489 230.394 23.7777 230.403 23.8697C230.422 23.9525 230.523 24.0997 230.707 24.3113L235.633 29.7069C235.744 29.8265 235.845 29.9139 235.937 29.9691C236.038 30.0151 236.213 30.0381 236.461 30.0381H237.745C237.919 30.0381 238.034 30.0611 238.09 30.1071C238.154 30.1531 238.186 30.2635 238.186 30.4383V31.7355C238.186 31.9655 238.149 32.1081 238.076 32.1633C238.002 32.2185 237.855 32.2461 237.634 32.2461H230.1C229.897 32.2461 229.768 32.2185 229.713 32.1633C229.667 32.1081 229.644 31.9793 229.644 31.7769V30.5349C229.644 30.3233 229.672 30.1899 229.727 30.1347C229.782 30.0703 229.92 30.0381 230.141 30.0381H230.596C230.9 30.0381 231.043 30.0105 231.024 29.9553C231.015 29.9001 230.951 29.8081 230.831 29.6793L226.691 25.222C226.553 25.0748 226.452 24.9966 226.387 24.9874C226.323 24.969 226.291 25.1208 226.291 25.4428V29.5C226.291 29.7023 226.318 29.8449 226.374 29.9277C226.429 30.0013 226.571 30.0381 226.801 30.0381H227.602C227.767 30.0381 227.887 30.0611 227.961 30.1071C228.043 30.1531 228.085 30.2635 228.085 30.4383V31.8459C228.085 32.0299 228.048 32.1449 227.974 32.1909C227.91 32.2277 227.781 32.2461 227.588 32.2461H220.205C220.003 32.2461 219.86 32.2139 219.777 32.1495C219.695 32.0851 219.653 31.9563 219.653 31.7631V30.4521C219.653 30.2773 219.685 30.1669 219.75 30.1209C219.814 30.0657 219.938 30.0381 220.122 30.0381H221.558C221.815 30.0381 221.976 30.0059 222.041 29.9415C222.105 29.8679 222.137 29.7023 222.137 29.4448V13.4785C222.137 13.2485 222.096 13.1013 222.013 13.0369C221.93 12.9633 221.774 12.9265 221.544 12.9265ZM237.461 28.8514C237.461 27.8946 237.769 27.0574 238.386 26.3398C239.002 25.6222 239.881 25.0656 241.022 24.6701C242.162 24.2653 243.524 24.0629 245.106 24.0629H246.238C246.394 24.0629 246.491 24.0445 246.528 24.0077C246.574 23.9709 246.597 23.8697 246.597 23.7041V22.1171C246.597 21.5743 246.514 21.1051 246.348 20.7095C246.192 20.3047 245.934 19.992 245.576 19.7712C245.217 19.5504 244.752 19.44 244.182 19.44C243.86 19.44 243.556 19.4722 243.271 19.5366C242.995 19.601 242.77 19.6838 242.595 19.785C242.429 19.8862 242.346 19.9966 242.346 20.1161C242.346 20.2541 242.397 20.3645 242.498 20.4473C242.599 20.5209 242.701 20.6405 242.802 20.8061C242.912 20.9625 242.967 21.2293 242.967 21.6065C242.967 22.1769 242.751 22.6323 242.319 22.9727C241.886 23.3131 241.367 23.4833 240.759 23.4833C240.125 23.4833 239.577 23.3407 239.117 23.0555C238.657 22.7703 238.427 22.2873 238.427 21.6065C238.427 20.9257 238.625 20.3323 239.021 19.8264C239.425 19.3204 239.964 18.9064 240.635 18.5844C241.307 18.2532 242.052 18.0094 242.871 17.853C243.69 17.6966 244.518 17.6184 245.355 17.6184C246.643 17.6184 247.682 17.8116 248.473 18.198C249.265 18.5844 249.84 19.1318 250.198 19.8402C250.566 20.5485 250.75 21.3765 250.75 22.3241V29.3896C250.75 29.6655 250.819 29.8679 250.957 29.9967C251.105 30.1255 251.275 30.1899 251.468 30.1899C251.661 30.1899 251.859 30.1393 252.061 30.0381C252.264 29.9277 252.462 29.7069 252.655 29.3758C252.747 29.2194 252.853 29.1872 252.972 29.2792L254.007 29.9139C254.127 29.9875 254.154 30.0979 254.09 30.2451C253.878 30.6499 253.598 31.0271 253.248 31.3767C252.899 31.7171 252.485 31.9931 252.006 32.2047C251.537 32.4163 250.999 32.5221 250.392 32.5221H250.378C249.706 32.5221 249.168 32.4393 248.763 32.2737C248.358 32.1081 248.036 31.8965 247.797 31.6389C247.567 31.3813 247.374 31.1237 247.218 30.8661C247.089 30.6545 246.983 30.5441 246.9 30.5349C246.817 30.5257 246.702 30.6039 246.555 30.7695C246.334 31.0271 246.035 31.2939 245.658 31.5699C245.29 31.8367 244.812 32.0621 244.223 32.2461C243.634 32.4301 242.898 32.5221 242.015 32.5221C240.617 32.5221 239.508 32.2093 238.689 31.5837C237.871 30.9581 237.461 30.0473 237.461 28.8514ZM242.153 28.3684C242.153 29.0124 242.337 29.4862 242.705 29.7897C243.082 30.0841 243.547 30.2313 244.099 30.2313C244.863 30.2313 245.47 29.9599 245.92 29.4172C246.371 28.8652 246.597 28.051 246.597 26.9746V25.912C246.597 25.728 246.505 25.636 246.321 25.636H245.562C244.817 25.636 244.191 25.7556 243.685 25.9948C243.179 26.234 242.797 26.5606 242.54 26.9746C242.282 27.3794 242.153 27.844 242.153 28.3684Z" fill="white" style="fill:white;fill:white;fill-opacity:1;"/>
</svg>
