<svg width="84" height="84" viewBox="0 0 84 84" fill="none" xmlns="http://www.w3.org/2000/svg">
<path fill-rule="evenodd" clip-rule="evenodd" d="M42.0007 0C18.8051 0 0 18.8023 0 42.0007C0 65.1973 18.8042 83.9987 42.0007 83.9987C65.1963 83.9987 84.0015 65.1963 84.0015 42.0007C84.0015 18.8023 65.1963 0 42.0007 0ZM79.1014 60.4101L69.781 51.0878V69.7334H51.1354L60.4559 79.0538H41.8131H23.1667L32.489 69.7334H13.8453V51.0869L4.52208 60.4092V41.7637L13.8453 51.0869L13.8453 32.4414V13.7968H32.489L23.1667 4.47354H41.8131L32.489 13.7968H51.1355L41.8132 4.47354L60.4568 4.47354L51.1364 13.7968H69.7819V32.4414L79.1023 23.1191V41.7637L79.1014 60.4101ZM13.8453 32.4414L4.52208 23.1191V41.7637L13.8453 32.4414ZM23.1667 23.1191L13.8453 32.4414L23.1667 41.7637L13.8453 51.0869L23.1667 60.4083V41.7637L32.489 51.085V32.4414L23.1667 41.7637V23.1191ZM41.8131 23.1191L32.489 13.7968L23.1667 23.1191H41.8131ZM60.4559 41.7637L69.7809 32.4414L51.1354 13.7968L41.8131 23.1191H60.4558V41.7636L51.1355 32.4423V51.0832L60.4558 41.7637V60.4101H41.8131L41.8131 60.4101H23.1667L32.489 69.7324L41.8131 60.4101L51.1354 69.7324L69.7809 51.0869L60.4559 41.7637ZM41.8132 23.1191L51.1355 32.4414H32.4899L41.8132 23.1191ZM32.4899 51.0869L41.8132 60.4101L51.1355 51.0869H32.4899ZM79.1014 41.7637L69.781 51.0869V32.4414L79.1014 41.7637ZM41.8132 79.0529L51.1355 69.7325H32.489L41.8132 79.0529Z" fill="url(#paint0_linear_112_115)" style=""/>
<defs>
<linearGradient id="paint0_linear_112_115" x1="7.67321" y1="75.5988" x2="81.4729" y2="18.0974" gradientUnits="userSpaceOnUse">
<stop stop-color="#D260CA" style="stop-color:#D260CA;stop-color:color(display-p3 0.8250 0.3747 0.7908);stop-opacity:1;"/>
<stop offset="0.484375" stop-color="#7E4DFD" style="stop-color:#7E4DFD;stop-color:color(display-p3 0.4935 0.3016 0.9917);stop-opacity:1;"/>
<stop offset="1" stop-color="#0C8EB3" style="stop-color:#0C8EB3;stop-color:color(display-p3 0.0467 0.5566 0.7000);stop-opacity:1;"/>
</linearGradient>
</defs>
</svg>
