<svg width="247" height="45" viewBox="0 0 247 45" fill="none" xmlns="http://www.w3.org/2000/svg">
<path fill-rule="evenodd" clip-rule="evenodd" d="M22 3C10.9547 3 2 11.9533 2 23C2 34.0458 10.9542 42.9987 22 42.9987C33.0453 42.9987 42 34.0453 42 23C42 11.9533 33.0453 3 22 3ZM39.6667 31.7662L35.2284 27.3271V36.2058H26.3498L30.788 40.644H21.9107H13.0316L17.4707 36.2058H8.59289V27.3267L13.0315 31.7653V22.8871L17.4707 27.3258V18.448L13.0315 22.8871V14.0089L8.59289 18.448V9.56978H17.4707L13.0316 5.13022H21.9107H30.7884L26.3502 9.56978H35.2289V18.448L39.6671 14.0089V22.8871L39.6667 31.7662ZM4.15333 22.8871L8.59288 18.448L8.59289 27.3267L4.15333 22.8871ZM4.15333 22.8871V14.0089L8.59289 18.448L8.59288 18.448L13.0315 22.8871L8.59289 27.3267L4.15333 31.7658V22.8871ZM21.9107 14.0089L17.4707 9.56978L26.3498 9.56978L21.9107 14.0089H30.788V22.8871L35.2285 18.448L35.2284 27.3267L30.788 22.8871V31.7662L21.9107 31.7662L26.3498 27.3267H17.4711L21.9107 31.7662H13.0315L17.4707 36.2053L21.9107 40.6436L26.3498 36.2053L35.2284 27.3267L39.6667 22.8871L35.2285 18.448L26.3498 9.56978L21.9107 5.13023L17.4707 9.56978L17.4707 9.56978L13.0315 14.0089H21.9107ZM26.3498 36.2053L21.9107 31.7662L17.4707 36.2053H26.3498ZM21.9107 14.0089L26.3498 18.448H17.4711L21.9107 14.0089ZM26.3498 27.3249L30.788 22.8871L26.3498 18.4485V27.3249Z" fill="url(#paint0_linear_112_133)"/>
<path d="M58.02 13.28C60.0887 13.28 61.8577 13.7053 63.327 14.556C64.7963 15.4067 65.9177 16.586 66.691 18.094C67.4837 19.602 67.88 21.3323 67.88 23.285C67.88 24.7157 67.6383 26.04 67.155 27.258C66.691 28.476 66.024 29.5393 65.154 30.448C64.3033 31.3373 63.269 32.0333 62.051 32.536C60.8523 33.0387 59.5087 33.29 58.02 33.29C55.9513 33.29 54.1823 32.8647 52.713 32.014C51.2437 31.1633 50.1127 29.984 49.32 28.476C48.5467 26.968 48.16 25.2377 48.16 23.285C48.16 21.8543 48.392 20.53 48.856 19.312C49.3393 18.094 50.0063 17.0403 50.857 16.151C51.727 15.2423 52.771 14.5367 53.989 14.034C55.207 13.5313 56.5507 13.28 58.02 13.28ZM58.31 32.13C59.2573 32.13 60.0887 31.782 60.804 31.086C61.5193 30.3707 62.08 29.375 62.486 28.099C62.892 26.8037 63.095 25.2957 63.095 23.575C63.095 21.893 62.8533 20.3657 62.37 18.993C61.906 17.601 61.268 16.499 60.456 15.687C59.644 14.8557 58.7353 14.44 57.73 14.44C56.802 14.44 55.9707 14.7977 55.236 15.513C54.5207 16.209 53.96 17.2047 53.554 18.5C53.148 19.776 52.945 21.2743 52.945 22.995C52.945 24.677 53.177 26.214 53.641 27.606C54.1243 28.9787 54.772 30.0807 55.584 30.912C56.396 31.724 57.3047 32.13 58.31 32.13ZM79.0382 18.79C80.2949 18.79 81.4065 19.08 82.3732 19.66C83.3399 20.24 84.0939 21.0713 84.6352 22.154C85.1765 23.2173 85.4472 24.4933 85.4472 25.982C85.4472 27.4707 85.1765 28.766 84.6352 29.868C84.0939 30.9507 83.3399 31.7917 82.3732 32.391C81.4065 32.9903 80.2949 33.29 79.0382 33.29C77.9749 33.29 77.0759 33.0483 76.3412 32.565C75.6259 32.0623 75.0845 31.434 74.7172 30.68V38.945L75.0072 39.235H77.3272V40.25H68.7722V39.235H70.2222L70.5122 38.945V20.414L70.2222 20.124H68.7722V19.109C69.2749 19.109 69.8452 19.109 70.4832 19.109C71.1212 19.0897 71.7592 19.0607 72.3972 19.022C73.0545 18.964 73.6345 18.8963 74.1372 18.819L74.4272 19.109V21.4H74.7172C75.0845 20.7233 75.6452 20.124 76.3992 19.602C77.1532 19.0607 78.0329 18.79 79.0382 18.79ZM78.0522 31.695C78.8642 31.695 79.5215 31.2793 80.0242 30.448C80.5462 29.5973 80.8072 28.2247 80.8072 26.33C80.8072 24.4353 80.5462 22.9757 80.0242 21.951C79.5215 20.907 78.8642 20.385 78.0522 20.385C77.5495 20.385 76.9985 20.6073 76.3992 21.052C75.8192 21.4967 75.2585 22.3377 74.7172 23.575V28.505C75.2585 29.7423 75.8192 30.5833 76.3992 31.028C76.9985 31.4727 77.5495 31.695 78.0522 31.695ZM95.0421 31.84C96.0088 31.84 96.8788 31.608 97.6521 31.144C98.4448 30.68 99.1021 30.1677 99.6241 29.607L100.407 30.274C100.001 30.7573 99.5275 31.231 98.9861 31.695C98.4641 32.159 97.8068 32.5457 97.0141 32.855C96.2215 33.145 95.2161 33.29 93.9981 33.29C92.6641 33.29 91.4365 33.0097 90.3151 32.449C89.1938 31.869 88.2948 31.0377 87.6181 29.955C86.9415 28.8723 86.6031 27.5673 86.6031 26.04C86.6031 24.5127 86.9415 23.2077 87.6181 22.125C88.2948 21.0423 89.1938 20.2207 90.3151 19.66C91.4365 19.08 92.6641 18.79 93.9981 18.79C95.2548 18.79 96.3761 19.0317 97.3621 19.515C98.3481 19.9983 99.1215 20.7523 99.6821 21.777C100.262 22.8017 100.552 24.126 100.552 25.75H90.2281V24.735H96.0571C95.9798 23.053 95.7478 21.8157 95.3611 21.023C94.9938 20.211 94.4428 19.805 93.7081 19.805C93.1861 19.805 92.7415 20.066 92.3741 20.588C92.0068 21.0907 91.7265 21.8157 91.5331 22.763C91.3398 23.691 91.2431 24.7833 91.2431 26.04C91.2431 27.2773 91.3785 28.331 91.6491 29.201C91.9391 30.0517 92.3645 30.709 92.9251 31.173C93.4858 31.6177 94.1915 31.84 95.0421 31.84ZM116.733 31.695L117.023 31.985H118.473V33H110.788V31.985H112.238L112.528 31.695V22.85C112.528 21.922 112.363 21.284 112.035 20.936C111.725 20.5687 111.29 20.385 110.73 20.385C110.13 20.385 109.56 20.6073 109.019 21.052C108.497 21.4967 107.926 22.2893 107.308 23.43V31.695L107.598 31.985H109.048V33H101.363V31.985H102.813L103.103 31.695V20.385L102.813 20.095H101.363V19.08C101.865 19.08 102.436 19.08 103.074 19.08C103.731 19.0607 104.379 19.0317 105.017 18.993C105.655 18.935 106.225 18.8673 106.728 18.79L107.018 19.08V21.545H107.308C107.752 20.7717 108.352 20.124 109.106 19.602C109.86 19.0607 110.904 18.79 112.238 18.79C113.282 18.79 114.132 18.964 114.79 19.312C115.466 19.6407 115.959 20.095 116.269 20.675C116.578 21.2357 116.733 21.864 116.733 22.56V31.695ZM131.708 23.72H138.958V24.735H137.943L137.653 25.025V33H136.638L134.289 31.115H134.144C133.719 31.5403 133.284 31.9173 132.839 32.246C132.414 32.5747 131.892 32.826 131.273 33C130.674 33.1933 129.891 33.29 128.924 33.29H128.895C127.503 33.29 126.237 33.0483 125.096 32.565C123.955 32.0623 122.979 31.3663 122.167 30.477C121.355 29.5877 120.727 28.5533 120.282 27.374C119.857 26.1753 119.644 24.8897 119.644 23.517C119.644 22.009 119.895 20.6363 120.398 19.399C120.92 18.1423 121.645 17.0597 122.573 16.151C123.52 15.223 124.642 14.5173 125.937 14.034C127.232 13.5313 128.653 13.28 130.2 13.28C131.379 13.28 132.394 13.4057 133.245 13.657C134.115 13.9083 134.801 14.1693 135.304 14.44L135.739 13.57H136.754C136.831 14.556 136.928 15.658 137.044 16.876C137.16 18.0747 137.305 19.1283 137.479 20.037L136.522 20.327C135.981 18.877 135.362 17.7267 134.666 16.876C133.989 16.006 133.264 15.3873 132.491 15.02C131.718 14.6333 130.915 14.44 130.084 14.44C128.769 14.44 127.687 14.846 126.836 15.658C126.005 16.4507 125.396 17.5237 125.009 18.877C124.622 20.211 124.429 21.6997 124.429 23.343C124.429 24.967 124.613 26.417 124.98 27.693C125.347 28.969 125.908 29.984 126.662 30.738C127.416 31.4727 128.354 31.84 129.475 31.84C130.306 31.84 131.051 31.637 131.708 31.231C132.385 30.8057 132.916 30.1967 133.303 29.404C133.69 28.6113 133.883 27.664 133.883 26.562V25.025L133.593 24.735H131.708V23.72ZM145.873 22.125C146.26 21.2357 146.811 20.4623 147.526 19.805C148.242 19.1283 149.189 18.79 150.368 18.79C150.968 18.79 151.461 18.9157 151.847 19.167C152.234 19.4183 152.514 19.7373 152.688 20.124C152.882 20.4913 152.978 20.8587 152.978 21.226C152.978 21.9027 152.756 22.4827 152.311 22.966C151.867 23.4493 151.267 23.691 150.513 23.691C149.837 23.691 149.257 23.4493 148.773 22.966C148.29 22.4827 148.048 21.9027 148.048 21.226C148.048 20.8587 148.126 20.5397 148.28 20.269C148.454 19.979 148.609 19.7663 148.744 19.631V20.675C148.377 20.791 148.048 20.9747 147.758 21.226C147.488 21.458 147.207 21.8253 146.917 22.328C146.647 22.8113 146.299 23.517 145.873 24.445V22.125ZM145.873 31.695L146.163 31.985H148.483V33H139.928V31.985H141.378L141.668 31.695V20.385L141.378 20.095H139.928V19.08C140.431 19.08 141.001 19.08 141.639 19.08C142.297 19.0607 142.944 19.0317 143.582 18.993C144.22 18.935 144.791 18.8673 145.293 18.79L145.583 19.08V22.125H145.873V31.695ZM164.625 33.29C163.968 33.29 163.397 33.1837 162.914 32.971C162.45 32.7583 162.044 32.3813 161.696 31.84V24.155C161.696 22.937 161.493 21.9607 161.087 21.226C160.7 20.472 159.927 20.095 158.767 20.095C158.342 20.095 157.945 20.1433 157.578 20.24C157.211 20.3173 156.843 20.443 156.476 20.617C156.785 20.8103 157.027 21.0617 157.201 21.371C157.394 21.6803 157.491 22.0283 157.491 22.415C157.491 22.995 157.298 23.4783 156.911 23.865C156.524 24.2517 156.041 24.445 155.461 24.445C154.881 24.445 154.398 24.2517 154.011 23.865C153.624 23.459 153.431 22.9273 153.431 22.27C153.431 21.6513 153.634 21.1293 154.04 20.704C154.465 20.2593 155.016 19.9017 155.693 19.631C156.37 19.341 157.095 19.1283 157.868 18.993C158.661 18.8577 159.415 18.79 160.13 18.79C161.116 18.79 162.044 18.935 162.914 19.225C163.803 19.515 164.519 20.0177 165.06 20.733C165.621 21.429 165.901 22.4247 165.901 23.72V29.984C165.901 30.2547 165.969 30.5157 166.104 30.767C166.239 30.999 166.462 31.115 166.771 31.115C166.984 31.115 167.177 31.057 167.351 30.941C167.544 30.8057 167.718 30.6413 167.873 30.448L168.656 31.115C168.424 31.4437 168.144 31.782 167.815 32.13C167.506 32.4587 167.1 32.739 166.597 32.971C166.094 33.1837 165.437 33.29 164.625 33.29ZM157.781 33.29C156.254 33.29 154.997 32.9227 154.011 32.188C153.044 31.4533 152.561 30.4673 152.561 29.23C152.561 28.012 153.044 27.0357 154.011 26.301C154.978 25.547 156.234 25.17 157.781 25.17C158.864 25.17 159.705 25.3343 160.304 25.663C160.923 25.9723 161.387 26.2913 161.696 26.62V28.012C161.29 27.5287 160.845 27.171 160.362 26.939C159.879 26.6877 159.395 26.562 158.912 26.562C158.197 26.562 157.655 26.8133 157.288 27.316C156.94 27.7993 156.766 28.4373 156.766 29.23C156.766 30.0033 156.94 30.6413 157.288 31.144C157.655 31.6467 158.197 31.898 158.912 31.898C159.395 31.898 159.879 31.782 160.362 31.55C160.845 31.2987 161.29 30.9313 161.696 30.448V31.84C161.387 32.1687 160.923 32.4973 160.304 32.826C159.705 33.1353 158.864 33.29 157.781 33.29ZM178.235 18.79C179.492 18.79 180.604 19.08 181.57 19.66C182.537 20.24 183.291 21.0713 183.832 22.154C184.374 23.2173 184.644 24.4933 184.644 25.982C184.644 27.4707 184.374 28.766 183.832 29.868C183.291 30.9507 182.537 31.7917 181.57 32.391C180.604 32.9903 179.492 33.29 178.235 33.29C177.172 33.29 176.273 33.0483 175.538 32.565C174.823 32.0623 174.282 31.434 173.914 30.68V38.945L174.204 39.235H176.524V40.25H167.969V39.235H169.419L169.709 38.945V20.414L169.419 20.124H167.969V19.109C168.472 19.109 169.042 19.109 169.68 19.109C170.318 19.0897 170.956 19.0607 171.594 19.022C172.252 18.964 172.832 18.8963 173.334 18.819L173.624 19.109V21.4H173.914C174.282 20.7233 174.842 20.124 175.596 19.602C176.35 19.0607 177.23 18.79 178.235 18.79ZM177.249 31.695C178.061 31.695 178.719 31.2793 179.221 30.448C179.743 29.5973 180.004 28.2247 180.004 26.33C180.004 24.4353 179.743 22.9757 179.221 21.951C178.719 20.907 178.061 20.385 177.249 20.385C176.747 20.385 176.196 20.6073 175.596 21.052C175.016 21.4967 174.456 22.3377 173.914 23.575V28.505C174.456 29.7423 175.016 30.5833 175.596 31.028C176.196 31.4727 176.747 31.695 177.249 31.695ZM200.735 31.695L201.025 31.985H202.475V33H194.79V31.985H196.24L196.53 31.695V22.85C196.53 21.922 196.366 21.284 196.037 20.936C195.728 20.5687 195.293 20.385 194.732 20.385C194.133 20.385 193.562 20.6073 193.021 21.052C192.499 21.4967 191.929 22.2893 191.31 23.43V31.695L191.6 31.985H193.05V33H185.365V31.985H186.815L187.105 31.695V13.135L186.815 12.845H185.365V11.83C185.868 11.83 186.467 11.83 187.163 11.83C187.859 11.8107 188.545 11.7817 189.222 11.743C189.918 11.685 190.517 11.6173 191.02 11.54L191.31 11.83V21.545C191.755 20.7717 192.354 20.124 193.108 19.602C193.862 19.0607 194.906 18.79 196.24 18.79C197.284 18.79 198.135 18.964 198.792 19.312C199.469 19.6407 199.962 20.095 200.271 20.675C200.58 21.2357 200.735 21.864 200.735 22.56V31.695ZM203.335 33V31.985H204.785L205.075 31.695V20.385L204.785 20.095H203.335V19.08C203.838 19.08 204.437 19.08 205.133 19.08C205.829 19.0607 206.515 19.0317 207.192 18.993C207.888 18.935 208.487 18.8673 208.99 18.79L209.28 19.08V31.695L209.57 31.985H211.02V33H203.335ZM207.134 17.34C206.477 17.34 205.897 17.0983 205.394 16.615C204.911 16.1123 204.669 15.5323 204.669 14.875C204.669 14.1983 204.911 13.6183 205.394 13.135C205.897 12.6517 206.477 12.41 207.134 12.41C207.811 12.41 208.391 12.6517 208.874 13.135C209.357 13.6183 209.599 14.1983 209.599 14.875C209.599 15.5323 209.357 16.1123 208.874 16.615C208.391 17.0983 207.811 17.34 207.134 17.34ZM222.51 22.763L227.411 31.985H229.006V33H220.741V31.985H222.104L222.394 31.695L219.059 25.489L222.51 22.763ZM215.753 27.838L223.554 20.385L223.264 20.095H220.219V19.08H227.846V20.095H225.671L217.551 27.838H215.753ZM217.551 31.695L217.841 31.985H219.291V33H211.606V31.985H213.056L213.346 31.695V13.135L213.056 12.845H211.606V11.83C212.108 11.83 212.708 11.83 213.404 11.83C214.1 11.8107 214.786 11.7817 215.463 11.743C216.159 11.685 216.758 11.6173 217.261 11.54L217.551 11.83V31.695ZM240.648 33.29C239.991 33.29 239.421 33.1837 238.937 32.971C238.473 32.7583 238.067 32.3813 237.719 31.84V24.155C237.719 22.937 237.516 21.9607 237.11 21.226C236.724 20.472 235.95 20.095 234.79 20.095C234.365 20.095 233.969 20.1433 233.601 20.24C233.234 20.3173 232.867 20.443 232.499 20.617C232.809 20.8103 233.05 21.0617 233.224 21.371C233.418 21.6803 233.514 22.0283 233.514 22.415C233.514 22.995 233.321 23.4783 232.934 23.865C232.548 24.2517 232.064 24.445 231.484 24.445C230.904 24.445 230.421 24.2517 230.034 23.865C229.648 23.459 229.454 22.9273 229.454 22.27C229.454 21.6513 229.657 21.1293 230.063 20.704C230.489 20.2593 231.04 19.9017 231.716 19.631C232.393 19.341 233.118 19.1283 233.891 18.993C234.684 18.8577 235.438 18.79 236.153 18.79C237.139 18.79 238.067 18.935 238.937 19.225C239.827 19.515 240.542 20.0177 241.083 20.733C241.644 21.429 241.924 22.4247 241.924 23.72V29.984C241.924 30.2547 241.992 30.5157 242.127 30.767C242.263 30.999 242.485 31.115 242.794 31.115C243.007 31.115 243.2 31.057 243.374 30.941C243.568 30.8057 243.742 30.6413 243.896 30.448L244.679 31.115C244.447 31.4437 244.167 31.782 243.838 32.13C243.529 32.4587 243.123 32.739 242.62 32.971C242.118 33.1837 241.46 33.29 240.648 33.29ZM233.804 33.29C232.277 33.29 231.02 32.9227 230.034 32.188C229.068 31.4533 228.584 30.4673 228.584 29.23C228.584 28.012 229.068 27.0357 230.034 26.301C231.001 25.547 232.258 25.17 233.804 25.17C234.887 25.17 235.728 25.3343 236.327 25.663C236.946 25.9723 237.41 26.2913 237.719 26.62V28.012C237.313 27.5287 236.869 27.171 236.385 26.939C235.902 26.6877 235.419 26.562 234.935 26.562C234.22 26.562 233.679 26.8133 233.311 27.316C232.963 27.7993 232.789 28.4373 232.789 29.23C232.789 30.0033 232.963 30.6413 233.311 31.144C233.679 31.6467 234.22 31.898 234.935 31.898C235.419 31.898 235.902 31.782 236.385 31.55C236.869 31.2987 237.313 30.9313 237.719 30.448V31.84C237.41 32.1687 236.946 32.4973 236.327 32.826C235.728 33.1353 234.887 33.29 233.804 33.29Z" fill="black"/>
<defs>
<linearGradient id="paint0_linear_112_133" x1="5.65385" y1="38.9988" x2="40.7959" y2="11.6177" gradientUnits="userSpaceOnUse">
<stop stop-color="#D260CA"/>
<stop offset="0.484375" stop-color="#7E4DFD"/>
<stop offset="1" stop-color="#0C8EB3"/>
</linearGradient>
</defs>
</svg>
