<svg width="530" height="65" viewBox="0 0 530 65" fill="none" xmlns="http://www.w3.org/2000/svg">
<g id="texture-triangles-k" clip-path="url(#clip0_142_795)">
<g id="Group 3">
<path id="Polygon 4" d="M39.7141 32.7502L61.9832 64.4506H17.445L39.7141 32.7502Z" fill="black"/>
<path id="Polygon 6" d="M128.902 32.7502L151.172 64.4506H106.633L128.902 32.7502Z" fill="black"/>
<path id="Polygon 10" d="M307.279 32.75L329.548 64.4504H285.01L307.279 32.75Z" fill="black"/>
<path id="Polygon 16" d="M151.228 1L173.497 32.7004H128.959L151.228 1Z" fill="black"/>
<path id="Polygon 12" d="M396.468 32.75L418.737 64.4504H374.198L396.468 32.75Z" fill="black"/>
<path id="Polygon 17" d="M240.417 1L262.686 32.7004H218.148L240.417 1Z" fill="black"/>
<path id="Polygon 14" d="M485.656 32.75L507.925 64.4504H463.387L485.656 32.75Z" fill="black"/>
<path id="Polygon 18" d="M329.605 1L351.874 32.7004H307.336L329.605 1Z" fill="black"/>
<path id="Polygon 7" d="M173.43 32.7502L195.699 64.4506H151.161L173.43 32.7502Z" fill="black"/>
<path id="Polygon 9" d="M262.618 32.7502L284.888 64.4506H240.349L262.618 32.7502Z" fill="black"/>
<path id="Polygon 19" d="M106.568 1L128.837 32.7004H84.2986L106.568 1Z" fill="black"/>
<path id="Polygon 11" d="M351.807 32.75L374.076 64.4504H329.538L351.807 32.75Z" fill="black"/>
<path id="Polygon 20" d="M195.756 1L218.025 32.7004H173.487L195.756 1Z" fill="black"/>
<path id="Polygon 13" d="M440.995 32.75L463.264 64.4504H418.726L440.995 32.75Z" fill="black"/>
<path id="Polygon 15" d="M530.184 32.7502L552.453 64.4506H507.914L530.184 32.7502Z" fill="black"/>
<path id="Polygon 22" d="M374.133 1L396.402 32.7004H351.864L374.133 1Z" fill="black"/>
</g>
</g>
<defs>
<clipPath id="clip0_142_795">
<rect width="530" height="64" fill="white" transform="translate(0 0.773315)"/>
</clipPath>
</defs>
</svg>
